<svg id="Layer_1" data-name="Layer 1" xmlns="http://www.w3.org/2000/svg" viewBox="0 0 784.54 820.34"><defs><style>.cls-1{fill:#ffb23b;}.cls-11,.cls-12,.cls-13,.cls-2,.cls-6{fill:#361e16;}.cls-3{fill:#f8e1b1;}.cls-4{fill:#ff800f;}.cls-5{fill:none;stroke:#361e16;stroke-linecap:round;stroke-linejoin:round;stroke-width:2.04px;}.cls-6{font-size:116.61px;font-family:Montserrat-SemiBold, Montserrat SemiBold;font-weight:600;}.cls-7{letter-spacing:-0.01em;}.cls-12,.cls-8{letter-spacing:-0.08em;}.cls-9{letter-spacing:-0.03em;}.cls-10{letter-spacing:0em;}.cls-11{letter-spacing:-0.01em;}.cls-13{font-size:55.58px;font-family:Montserrat-Regular, Montserrat Regular;letter-spacing:0.43em;}.cls-14{letter-spacing:0.35em;}.cls-15{letter-spacing:0.43em;}</style></defs><path class="cls-1" d="M704.47,440.92V511.2a41.54,41.54,0,0,1-.2,4.19,44.66,44.66,0,0,1-14.39,29.86c-8.56,7.81-20,10.77-29.24,17.66-9,6.72-14.26,16.07-17.36,26.74-6.95,24.07-2.44,54.8-2.63,76.5,0,1.84-.07,3.69-.2,5.53a79.65,79.65,0,0,1-1.15,10.05,90.71,90.71,0,0,1-24.9,48.18q-10.77,10.92-21.47,21.93Q569,776.29,545.6,801.21c-28.52,30.36-75.28,22.39-95.14-8.46a59.3,59.3,0,0,1-9.22-28q-.3-3.71-.3-7.5V575.78H376.23c-1.55,0-3.1,0-4.64-.1a117.53,117.53,0,0,1-85.2-42.25,110.12,110.12,0,0,1-6.95-9.19,97.89,97.89,0,0,0-55-39.61,93.32,93.32,0,0,0-24.87-3.36H199A36.48,36.48,0,0,1,169.31,466a34.35,34.35,0,0,1-6.39-19.37,34.85,34.85,0,0,1,8.57-23.41,36.35,36.35,0,0,1,4.58-4.45H156.4A58.44,58.44,0,0,1,115,401.57c-.39-.4-.82-.82-1.18-1.22a58.18,58.18,0,0,1-16-40.14,58.46,58.46,0,0,1,7.41-28.42A56.8,56.8,0,0,1,74.4,281.43v-3.88A56.8,56.8,0,0,1,128.31,221a44.73,44.73,0,0,1-.69-7.9,47,47,0,0,1,45.74-46.83,50.31,50.31,0,0,1,50.13-49.5H365.56a50.29,50.29,0,0,1,50.12,49.46h58.69c25,0,46.37,19.27,47.75,44.26a45.8,45.8,0,0,1-.59,10.44h14.92a55.7,55.7,0,0,1,21.73,4.38,52.34,52.34,0,0,1,5.83,2.84,53.53,53.53,0,0,1,10,7.21,56.3,56.3,0,0,1,19,42.19v3.88a56.34,56.34,0,0,1-3.72,20.19H594a58.1,58.1,0,0,1,18.93,3.16,58.57,58.57,0,0,1,39.62,55.43,58.12,58.12,0,0,1-7,27.63,51.56,51.56,0,0,1,5.6-.3,53.66,53.66,0,0,1,53.38,53.38Z"/><path class="cls-2" d="M727.82,584l-43,64.52a27.24,27.24,0,0,0-4.54,13.83l-4.06,87.3a27.22,27.22,0,0,0,14.28,25.23h0a27.23,27.23,0,0,0,33.08-5.69l53.92-59.5a27.18,27.18,0,0,0,7-18.85l-1.92-91.35a27.21,27.21,0,0,0-22-26.14l-4.93-1A27.21,27.21,0,0,0,727.82,584Z"/><circle class="cls-3" cx="211.5" cy="259.46" r="59.28"/><path class="cls-4" d="M323.4,532.81l-26,12.18a116.17,116.17,0,0,0,74.17,30.69c1.54.07,3.09.1,4.64.1h64.71v181.5q0,3.79.3,7.5a59.3,59.3,0,0,0,9.22,28c19.86,30.85,66.62,38.82,95.14,8.46q23.48-24.9,47.33-49.37,10.67-11,21.47-21.93a90.71,90.71,0,0,0,24.9-48.18,79.65,79.65,0,0,0,1.15-10.05c.13-1.84.2-3.69.2-5.53.19-21.7-4.32-52.43,2.63-76.5,3.1-10.67,8.4-20,17.36-26.74,9.19-6.89,20.68-9.85,29.24-17.66a43.53,43.53,0,0,0,9.48-12.44Z"/><path class="cls-2" d="M645.92,582.21H485.42q-22.05,15.84-44.48,31.2V757.28q0,3.79.3,7.5a59.3,59.3,0,0,0,9.22,28c19.86,30.85,66.62,38.82,95.14,8.46q23.48-24.9,47.33-49.37,10.67-11,21.47-21.93a90.71,90.71,0,0,0,24.9-48.18,79.65,79.65,0,0,0,1.15-10.05c.13-1.84.2-3.69.2-5.53.19-21.7-4.32-52.43,2.63-76.5A68.12,68.12,0,0,1,645.92,582.21Z"/><path class="cls-2" d="M653,518.78H343.83A27.85,27.85,0,0,1,316.05,491h0a27.86,27.86,0,0,1,27.78-27.77H653A27.86,27.86,0,0,1,680.73,491h0A27.85,27.85,0,0,1,653,518.78Z"/><line class="cls-5" x1="460.96" y1="513.95" x2="460.96" y2="656.44"/><path class="cls-2" d="M458.54,680.59h0a16.94,16.94,0,0,1-16.9-16.9V569.5a17,17,0,0,1,16.9-16.91h0a17,17,0,0,1,16.91,16.91v94.19A17,17,0,0,1,458.54,680.59Z"/><path class="cls-5" d="M466,581.56c-2.76-13.58-15-23.31-27.74-28.72s-26.66-7.72-39.34-13.29c-25.45-11.2-45.08-40-37-66.67"/><path class="cls-5" d="M404,509.05l2.58,34"/><path class="cls-5" d="M463.39,581.61c-1.63-10,4-20.11,12.09-26.14s18.3-8.54,28.33-9.7c21.21-2.46,43.06.44,63.77-4.77s41-22.54,39.28-43.82"/><path class="cls-5" d="M555.14,499.46v43.47"/><path class="cls-5" d="M500.5,502.66,461.11,547.9"/><path class="cls-3" d="M479.47,272.64H757a21,21,0,0,0-9.92-39.52H695.29a41,41,0,0,0-51.88-34.69,62.53,62.53,0,0,0-122.34,18.25,62,62,0,0,0,2.28,16.44h-34a21,21,0,0,0-9.92,39.52Z"/><text class="cls-6" transform="translate(0.12 581.56)"><tspan class="cls-7">D</tspan><tspan class="cls-8" x="76.03" y="0">A</tspan><tspan x="138.18" y="0">Y</tspan><tspan class="cls-4"><tspan class="cls-9" x="0" y="90.22">T</tspan><tspan class="cls-10" x="54.8" y="90.22">O</tspan><tspan class="cls-11" x="135.15" y="90.22">D</tspan><tspan class="cls-12" x="211.17" y="90.22">A</tspan><tspan class="cls-2" x="273.32" y="90.22">Y</tspan></tspan></text><text class="cls-13" transform="translate(23.76 720.59)">SA<tspan class="cls-14" x="108.89" y="0">F</tspan><tspan class="cls-15" x="155.35" y="0">ARIS</tspan></text><path class="cls-2" d="M663.69,323.38c-2.42-1.28-4.13-5.4-4.13-5.4l-5.82-9.79c-1.44-6.5-5-9-5-9s4.88-4.83,4.16-9.09-7.54-10.51-7.54-10.51c-4.11-11.52-9.41-14.93-9.41-14.93v-9.51c-20.06-9.38-22.68-12.65-34.62-4.85s-27,31.14-27.57,31.14-21.44,2.69-25.57,4.82-7.09,4.54-20.16,19.05-21,12.5-21,12.5-30.41-2.42-37.5-3.41-16.91,8.66-16.91,8.66L412.66,371s4.25,46.6-3.14,54-6.38,10-6.38,10-15.78,7.39-20.6,12.07-2.84,6.82-2.84,6.82l8.38,11.08H434c1.7-10.51-9.66-17.47-9.66-17.47,9.52-17.91,17.61-18.05,25.3-22.46s8.66-14.48,8.66-14.48c21.88,23.44,21.16,53.69,21.16,53.69l41.92.72A20.45,20.45,0,0,0,513,445.56l-.27-16.63c-35.06-8.9-43.28-25.43-43.61-26.12,3.88,5.28,25,18.73,46.72,19.73s40.49-24.43,40.49-24.43l17.9-1.42c-11.58-12.64-15.62-28.27-15.62-28.27,9.51,20.16,24.43,26.14,24.43,26.14s3.41,7.1,2.7,19.74,4.44,19,4.44,19c14.09,15.34,4.51,16.34,1.39,22.16s0,9.38,0,9.38l45.61-1c-.72-2.14,1.84-5.11,1.84-5.11-6.25-1.71-4.41-.87-3.7-4s6.25-1.71,6.25-1.71-5.11-10.94-10.79-5.26-5.4,2.84-5.4,2.84c.28-6.82-2.41-9.24-2.41-9.24,1.56-28,0-64.63,0-64.63,1.84-4.55,5.53-31.82,5.53-31.82s9.52,2.42,11.08,4.54,9.8-.15,9.8-3.83S661.27,331.05,663,330.2,666.11,324.67,663.69,323.38Zm-111.38,7.11a64.76,64.76,0,0,1-10.52-1.43l-12.5,29.55a108.09,108.09,0,0,0-21.59-20.17,66.7,66.7,0,0,1,16.48,31.82L470.48,343l-32.82,22.8c.42-4.69,12.14-30.26,18.11-36.87s10.88-7.24,10.88-7.24L506.28,324s13.85,3.19,19-6,15.41-19.67,15.41-19.67c14.2-9.95,23-6.82,23-6.82C548,308,552.31,330.49,552.31,330.49Zm68,23.79s-7.89-28.57-14.27-33.15l-1.92,9.55s-16.62-26.47-29-31.17c0,0,15.78-13.42,27.28-11.29S625.61,322.1,620.28,354.28ZM611.91,261l5.25,6a99.26,99.26,0,0,0-29.27,5.46C587.75,270.11,599,262,603.52,259s2.77-5.61,3.27-7.24,2.84-1.35,2.84-1.35c11.72.64,18.82,5.75,18.82,5.75C615,256,611.91,261,611.91,261Zm13.49,32s1.17-7.35,2.55-8.62,3.41-1.1,21.63,3.6c0,0,3.12,5.68-.63,6.63-.86.2-.86-1.92-11.3-3.41S625.4,293,625.4,293Zm10.54,7.79s0-2,1.5-2.14a5.65,5.65,0,0,1,3.09,1.07C640.85,303.14,635.94,300.8,635.94,300.8Zm11.41,23.65c-1,1.39-.21-7.57-.21-7.57a6.59,6.59,0,0,0-5.33-4.79,67.76,67.76,0,0,0-8.63-.64s.54-8.31,2.76-8.1,4.27,2,6.5,0,6.72-2.77,7.89.64c0,0-4,2.66-3.19,4.26s3.66.11,3.66.11a33.86,33.86,0,0,0,5.08,7v5.22S648.31,323.06,647.35,324.45Zm1.38,4.58s.54-5.86,6.13-5.65,6.13,6.18,6.13,6.18Z"/><path class="cls-2" d="M380.6,573.68h-9.24c-1.5,0-3,0-4.51-.09a112.91,112.91,0,0,1-72-29.81,115.89,115.89,0,0,1-10.72-11.22,109.84,109.84,0,0,1-6.74-8.93A95.1,95.1,0,0,0,224,485.16a90.78,90.78,0,0,0-24.15-3.26h-.6a35.4,35.4,0,0,1-28.82-14.81,33.36,33.36,0,0,1-6.2-18.8,33.87,33.87,0,0,1,8.31-22.74A140,140,0,0,1,266.4,405.4C357,418.58,393.3,494.05,380.6,573.68Z"/><polygon class="cls-2" points="236.97 426.41 432.06 71.42 467.24 100.21 336.12 467.99 236.97 426.41"/><rect class="cls-2" x="204.99" y="368.85" width="127.92" height="83.15" rx="6.63"/><rect class="cls-2" x="449.48" y="34.67" width="67.16" height="111.27" rx="5.26"/><path class="cls-2" d="M483.23,163.64h0a13.73,13.73,0,0,1-13.7-13.7v-20a13.73,13.73,0,0,1,13.7-13.7h0a13.74,13.74,0,0,1,13.7,13.7v20A13.74,13.74,0,0,1,483.23,163.64Z"/><path class="cls-2" d="M456.61,89c-15.28,1.66-31.08,3.28-45.76-1.28s-28.05-17-28.67-32.38c9.31,3.67,19.08,4.58,28.77,7.1,16.7,4.35,33.82,6.93,51,8.86"/><path class="cls-2" d="M506.89,92.2c15.28,1.67,31.08,3.29,45.76-1.27s28.05-17,28.67-32.38c-9.31,3.67-19.08,4.58-28.76,7.1-16.71,4.35-33.83,6.93-51,8.86"/><path class="cls-2" d="M447,22.39h0a9.63,9.63,0,0,1-9.59-9.6V10.66A9.62,9.62,0,0,1,447,1.07h0a9.62,9.62,0,0,1,9.6,9.59v2.13A9.63,9.63,0,0,1,447,22.39Z"/><path class="cls-2" d="M520.54,21.32h0a9.63,9.63,0,0,1-9.6-9.59V9.59A9.63,9.63,0,0,1,520.54,0h0a9.62,9.62,0,0,1,9.59,9.59v2.14A9.62,9.62,0,0,1,520.54,21.32Z"/><line class="cls-5" x1="446.98" y1="11.73" x2="465.1" y2="55.43"/></svg>